<?xml version="1.0" encoding="UTF-8"?>
<svg version="1.1" xmlns="http://www.w3.org/2000/svg" width="600" height="600">
<path d="M0 0 C0.81758789 0.21962402 1.63517578 0.43924805 2.47753906 0.66552734 C13.73591306 3.77378886 24.48682673 7.92849493 35 13 C35.61794434 13.29600098 36.23588867 13.59200195 36.87255859 13.89697266 C52.40378682 21.45237435 66.22126395 31.47927089 78.52978516 43.56494141 C79.94142302 44.94282374 81.38231394 46.29054206 82.82421875 47.63671875 C93.68016331 57.99709951 103.36213804 70.49054855 110 84 C110 84.66 110 85.32 110 86 C110.66 86 111.32 86 112 86 C110.02759967 81.1124168 107.75900915 76.67164404 104.875 72.25 C104.48248047 71.64510742 104.08996094 71.04021484 103.68554688 70.41699219 C99.84970158 64.60816426 95.5628165 59.25560016 91 54 C89.93845703 52.75476563 89.93845703 52.75476563 88.85546875 51.484375 C66.4082676 25.76109585 36.42803208 8.76360376 3.75927734 -0.4543457 C2.15661649 -0.91659523 0.5752407 -1.45153563 -1 -2 C-1.33 -2.66 -1.66 -3.32 -2 -4 C4.20605363 -4.35755041 9.48559075 -3.0621147 15.4375 -1.375 C16.40961426 -1.10284668 17.38172852 -0.83069336 18.38330078 -0.55029297 C53.81529024 9.57563385 88.38773216 29.59440955 111.6875 58.625 C112.41324219 59.52476563 113.13898438 60.42453125 113.88671875 61.3515625 C114.58410156 62.22554688 115.28148437 63.09953125 116 64 C116.74894531 64.89460938 117.49789063 65.78921875 118.26953125 66.7109375 C120 69 120 69 120 71 C122.30099489 68.85769441 124.01742088 66.97051851 125.625 64.25 C126.305625 63.13625 126.305625 63.13625 127 62 C127.66 62 128.32 62 129 62 C127.62938429 70.25022234 124.36392279 77.22681756 120.6875 84.6875 C120.222229 85.64050491 120.222229 85.64050491 119.74755859 86.61276245 C103.50624958 119.81450494 81.98003892 149.35771209 57.15234375 176.62890625 C55.75647894 178.16663754 54.37280903 179.7155623 53.00390625 181.27734375 C48.1685565 186.77081293 43.10088031 192.00447349 37.9375 197.1875 C37.2767749 197.85281738 36.6160498 198.51813477 35.93530273 199.20361328 C32.0136682 203.11310051 27.98063962 206.8349875 23.78833008 210.45239258 C21.60771613 212.33947951 19.49330573 214.2934558 17.375 216.25 C11.73868831 221.33474602 5.78885375 225.96521375 -0.21191406 230.60595703 C-1.9223924 231.93949489 -3.61608001 233.29126354 -5.3046875 234.65234375 C-21.29588445 247.50452797 -38.22801615 258.77126006 -56 269 C-56.75490723 269.43795898 -57.50981445 269.87591797 -58.28759766 270.32714844 C-84.66437413 285.57270596 -112.23610158 297.25846015 -142 304 C-142.74282227 304.17789062 -143.48564453 304.35578125 -144.25097656 304.5390625 C-154.67116611 306.98061319 -165.08340206 307.30176304 -175.75 307.375 C-177.04099609 307.38901855 -178.33199219 307.40303711 -179.66210938 307.41748047 C-198.69759777 307.32264347 -217.54294208 301.97616973 -231.75 288.75 C-245.88976172 273.59542285 -250.86053076 254.1673995 -250.28125 233.953125 C-249.28369729 212.92138875 -243.22717214 193.25508372 -235 174 C-234.34 174 -233.68 174 -233 174 C-233.42815466 180.68146621 -234.01570921 187.26017306 -235.0625 193.875 C-238.19617486 216.61181384 -237.44341278 242.99384797 -224.00390625 262.5 C-216.36435415 272.03082524 -207.20351227 278.28722635 -195 280 C-195.556875 279.00484375 -196.11375 278.0096875 -196.6875 276.984375 C-212.89371845 247.52209923 -221.2066906 216.73767371 -221.25 183.125 C-221.25233643 182.30206451 -221.25467285 181.47912903 -221.25708008 180.6312561 C-221.27008289 168.52135075 -220.72311754 156.84880311 -218 145 C-217.34 145 -216.68 145 -216 145 C-216.01047363 146.06210693 -216.02094727 147.12421387 -216.03173828 148.21850586 C-216.06856965 152.24613936 -216.09112431 156.27375882 -216.10986328 160.30151367 C-216.1197798 162.02842734 -216.13331713 163.75532489 -216.15087891 165.48217773 C-216.30645717 181.20015815 -215.45754382 196.32700859 -211.25 211.5625 C-210.98687012 212.53646729 -210.72374023 213.51043457 -210.45263672 214.51391602 C-204.51146154 235.98388648 -192.86128792 270.1209716 -173.26953125 282.76171875 C-172.14611328 283.37466797 -172.14611328 283.37466797 -171 284 C-171.556875 283.33355469 -172.11375 282.66710937 -172.6875 281.98046875 C-196.20287624 253.57929644 -208.79546796 222.57870135 -213 186 C-213.09571289 185.20456787 -213.19142578 184.40913574 -213.29003906 183.58959961 C-218.04024327 141.09740548 -206.3367619 97.38008093 -179.82275391 63.60839844 C-175.14766935 57.82332305 -170.12509593 52.38401608 -165 47 C-163.96166016 45.86498047 -163.96166016 45.86498047 -162.90234375 44.70703125 C-141.74190202 22.3234426 -112.38749933 7.89216099 -83 0 C-82.17854492 -0.2259082 -81.35708984 -0.45181641 -80.51074219 -0.68457031 C-55.61489292 -7.21183486 -24.77330136 -6.78011537 0 0 Z M-56 18 C-53.31351068 19.38892555 -50.6287572 20.56998139 -47.796875 21.62890625 C-31.63970288 27.79023905 -17.56277838 35.59693898 -3.42578125 45.51953125 C-2.8323291 45.93541504 -2.23887695 46.35129883 -1.62744141 46.77978516 C0 48 0 48 2.51953125 50.38671875 C4.93255563 52.27371418 4.93255563 52.27371418 8.046875 52.01953125 C13.60329173 50.82565252 18.93602205 48.66207564 24.25 46.6875 C25.31863281 46.29626953 26.38726562 45.90503906 27.48828125 45.50195312 C29.61365696 44.72333736 31.73802708 43.94197059 33.86132812 43.15771484 C38.56808707 41.42160323 43.28392361 39.71060676 48 38 C32.22632402 25.7667384 9.45696614 19.78274687 -10 17 C-10.83789062 16.86980469 -11.67578125 16.73960938 -12.5390625 16.60546875 C-26.9716648 14.74559732 -41.67013856 15.94501347 -56 18 Z M-91.0625 28.9375 C-91.97410889 29.33702881 -92.88571777 29.73655762 -93.82495117 30.14819336 C-101.95568666 33.7990041 -109.53459166 38.14920472 -117 43 C-116.37179018 46.0644486 -115.35434666 48.35854429 -113.734375 51.02734375 C-113.26265869 51.80956299 -112.79094238 52.59178223 -112.30493164 53.39770508 C-111.7918042 54.2358374 -111.27867676 55.07396973 -110.75 55.9375 C-109.95613892 57.24593872 -109.95613892 57.24593872 -109.14624023 58.58081055 C-107.437341 61.39123973 -105.71956275 64.19608432 -104 67 C-103.41943848 67.9497168 -102.83887695 68.89943359 -102.24072266 69.87792969 C-100.51892305 72.69210536 -98.79206047 75.5030883 -97.0625 78.3125 C-96.53172852 79.17673584 -96.00095703 80.04097168 -95.45410156 80.93139648 C-92.4671874 85.75702931 -89.35474255 90.42198116 -86 95 C-81.90141427 94.39679957 -78.87992921 93.04380747 -75.265625 91.04296875 C-74.14679932 90.4308252 -73.02797363 89.81868164 -71.87524414 89.18798828 C-70.98967331 88.69881927 -70.98967331 88.69881927 -70.08621216 88.19976807 C-49.6131978 76.91339325 -28.59023982 66.96523433 -7 58 C-10.97949708 53.61154275 -15.23979239 50.78850968 -20.375 47.875 C-21.60718262 47.17093018 -21.60718262 47.17093018 -22.86425781 46.45263672 C-37.55800871 38.19392476 -52.72657619 30.57343152 -69 26 C-69.62519531 25.79632813 -70.25039063 25.59265625 -70.89453125 25.3828125 C-78.65178469 23.97240278 -84.03671981 25.77560777 -91.0625 28.9375 Z M41.9296875 43.5 C41.13345978 43.85513672 40.33723206 44.21027344 39.51687622 44.57617188 C36.96801905 45.71398257 34.42150111 46.85692739 31.875 48 C30.14989092 48.77117196 28.42463236 49.54200963 26.69921875 50.3125 C22.46440001 52.20445519 18.23167251 54.10101881 14 56 C14 56.99 14 57.98 14 59 C15.89255114 60.77831885 17.78708916 62.38456243 19.8125 64 C26.12155313 69.22159879 32.01839288 74.77635651 37.8125 80.5625 C38.63186035 81.3781543 39.4512207 82.19380859 40.29541016 83.03417969 C45.37795002 88.16532166 49.91854515 93.32864145 53.91796875 99.359375 C56.00472277 101.35839023 56.00472277 101.35839023 59.41015625 100.94921875 C60.946086 100.66325836 62.47560609 100.34216482 64 100 C64.98444092 99.7922998 65.96888184 99.58459961 66.9831543 99.37060547 C70.41210753 98.62845196 73.83122131 97.85014128 77.25 97.0625 C85.80100695 95.09471509 94.3258336 93.33593238 103 92 C94.94516391 70.66648016 70.75311139 51.56964032 52 40 C48.40608632 40 45.16797779 42.04164262 41.9296875 43.5 Z M-139.6875 60.125 C-140.26330811 60.6597998 -140.83911621 61.19459961 -141.43237305 61.74560547 C-159.05330178 76.11382293 -159.05330178 76.11382293 -169.359375 94.48828125 C-169.11135523 100.37498262 -167.68692731 106.08922719 -166.375 111.8125 C-166.10864746 112.99561768 -165.84229492 114.17873535 -165.56787109 115.39770508 C-163.24643393 125.4525063 -160.35078432 135.24470238 -157 145 C-153.1791544 142.81467119 -149.76989971 140.345725 -146.3125 137.625 C-133.24620929 127.46803027 -119.77281112 118.01491611 -105.79882812 109.15185547 C-103.1741672 107.47118904 -100.58634214 105.73895364 -98 104 C-99.25110102 100.58638758 -100.66034765 97.82635563 -102.8359375 94.91796875 C-103.39982178 94.1585498 -103.96370605 93.39913086 -104.54467773 92.61669922 C-105.14868408 91.81506348 -105.75269043 91.01342773 -106.375 90.1875 C-106.99769775 89.35234863 -107.62039551 88.51719727 -108.26196289 87.65673828 C-110.16964975 85.10071419 -112.08466554 82.55029594 -114 80 C-115.11644566 78.50432428 -116.23236189 77.00825317 -117.34765625 75.51171875 C-124.94572882 65.07281178 -124.94572882 65.07281178 -133 55 C-135.35104545 55 -137.96711766 58.52528077 -139.6875 60.125 Z M-9.4296875 66.8203125 C-10.24874573 67.23064728 -11.06780396 67.64098206 -11.91168213 68.06375122 C-14.57370954 69.40306196 -17.22446142 70.76311217 -19.875 72.125 C-21.70007889 73.05100618 -23.5254379 73.97646047 -25.35107422 74.90136719 C-37.66778865 81.16848263 -49.81075719 87.68033192 -61.72851562 94.68066406 C-63.95360082 95.97305017 -66.19694342 97.22377437 -68.453125 98.4609375 C-69.12456543 98.83186523 -69.79600586 99.20279297 -70.48779297 99.58496094 C-72.20590867 100.53181383 -73.92701399 101.47323676 -75.6484375 102.4140625 C-78.2874691 103.84622269 -78.2874691 103.84622269 -79 107 C-78.26708825 108.88598315 -78.26708825 108.88598315 -77 110.82421875 C-76.53190918 111.59467529 -76.06381836 112.36513184 -75.58154297 113.15893555 C-75.05963379 113.99336182 -74.53772461 114.82778809 -74 115.6875 C-73.46906738 116.55221924 -72.93813477 117.41693848 -72.39111328 118.30786133 C-71.23081174 120.19264138 -70.06535744 122.07425636 -68.89550781 123.953125 C-66.89450669 127.16957194 -64.91159498 130.39675773 -62.9296875 133.625 C-61.57909339 135.81309803 -60.22754709 138.00060864 -58.875 140.1875 C-58.22402344 141.24477295 -57.57304687 142.3020459 -56.90234375 143.39135742 C-56.29261719 144.36951416 -55.68289063 145.3476709 -55.0546875 146.35546875 C-54.24233643 147.66487427 -54.24233643 147.66487427 -53.41357422 149.00073242 C-52.14985078 151.12179692 -52.14985078 151.12179692 -50 152 C-48.18130974 151.19696552 -48.18130974 151.19696552 -46.203125 149.89453125 C-45.42074463 149.41161621 -44.63836426 148.92870117 -43.83227539 148.43115234 C-42.98012451 147.89699707 -42.12797363 147.3628418 -41.25 146.8125 C-12.45279977 129.17346445 17.81321785 114.37510105 50 104 C48.90773595 100.72320785 48.20070846 100.07691498 45.625 97.9375 C42.29346198 95.11986944 39.06943112 92.2223331 35.875 89.25 C30.07100588 83.95977576 23.97644787 79.11274384 17.74316406 74.34033203 C16.0246649 73.01896502 14.32021497 71.68106497 12.6171875 70.33984375 C11.55780032 69.51757342 10.49792774 68.69592796 9.4375 67.875 C8.50808594 67.15054688 7.57867187 66.42609375 6.62109375 65.6796875 C0.33387161 61.65061817 -3.29166068 63.6461768 -9.4296875 66.8203125 Z M95.796875 96.73828125 C94.72376068 97.16043159 94.72376068 97.16043159 93.62896729 97.59111023 C92.11185564 98.18888823 90.59541365 98.78836813 89.07958984 99.3894043 C86.77490359 100.302632 84.46773287 101.20933895 82.16015625 102.11523438 C80.68474113 102.69752483 79.2094759 103.28019525 77.734375 103.86328125 C77.0497821 104.13215652 76.36518921 104.4010318 75.65985107 104.67805481 C71.66569977 106.26675098 67.81634078 108.02259642 64 110 C67.42185829 116.15934492 71.1867108 122.07654796 75 128 C74.01 128 73.02 128 72 128 C71.76796875 127.45988281 71.5359375 126.91976562 71.296875 126.36328125 C69.61313652 123.29502288 67.53911028 120.83385022 65.25 118.1875 C63.98929688 116.69283203 63.98929688 116.69283203 62.703125 115.16796875 C60.2293 112.74560029 60.2293 112.74560029 57.328125 112.88671875 C52.55806189 114.48233845 48.05218354 116.49192544 43.5 118.625 C42.46045166 119.10791504 41.42090332 119.59083008 40.34985352 120.08837891 C19.69652335 129.76016746 -0.60738952 139.98803176 -20.32617188 151.45800781 C-23.08341608 153.04810591 -25.85897933 154.60147239 -28.640625 156.1484375 C-30.40633036 157.14048198 -32.17195896 158.13266311 -33.9375 159.125 C-34.75565186 159.57456055 -35.57380371 160.02412109 -36.41674805 160.48730469 C-37.52336792 161.11620605 -37.52336792 161.11620605 -38.65234375 161.7578125 C-39.30195068 162.1202002 -39.95155762 162.48258789 -40.62084961 162.85595703 C-41.07596924 163.23349121 -41.53108887 163.61102539 -42 164 C-42 167.46762504 -41.30013662 168.47721882 -39.47265625 171.359375 C-38.9319751 172.22079102 -38.39129395 173.08220703 -37.83422852 173.96972656 C-37.24955811 174.8872168 -36.6648877 175.80470703 -36.0625 176.75 C-34.86369152 178.65568928 -33.66577954 180.56194281 -32.46875 182.46875 C-31.58123047 183.87833984 -31.58123047 183.87833984 -30.67578125 185.31640625 C-28.419 188.93041258 -26.23415212 192.58443897 -24.0625 196.25 C-20.87270311 201.61465841 -17.54874611 206.86475563 -14 212 C-8.8781866 210.43472627 -5.34157842 207.25398143 -1.3125 203.875 C0.1207956 202.68974353 1.55438864 201.50484665 2.98828125 200.3203125 C3.67873535 199.74700195 4.36918945 199.17369141 5.08056641 198.58300781 C7.48320255 196.60149003 9.9258036 194.67353421 12.375 192.75 C16.61413792 189.37149243 20.63929453 185.79191057 24.64453125 182.140625 C26.67741834 180.29315879 28.73381416 178.48292676 30.8125 176.6875 C40.1461117 168.52058976 49.09193751 160.00503415 57.875 151.25 C59.06959839 150.06229004 59.06959839 150.06229004 60.28833008 148.85058594 C64.50976079 144.61809162 68.56854803 140.30491864 72.46728516 135.7734375 C74.50262803 133.41843103 76.62738307 131.15132367 78.75 128.875 C84.02318432 123.0904766 88.84030217 117.00755021 93.60791016 110.80371094 C95.03351793 108.9565713 96.47402318 107.12189271 97.91796875 105.2890625 C98.8413706 104.10955093 99.764556 102.92986986 100.6875 101.75 C101.12191406 101.20102051 101.55632812 100.65204102 102.00390625 100.08642578 C104.3135044 97.36419547 104.3135044 97.36419547 105 94 C101.71696631 94 98.81391756 95.54073266 95.796875 96.73828125 Z M-181 110 C-192.63763068 133.09778116 -199.08207016 155.91008605 -198 182 C-193.03067649 177.79912858 -188.23037157 173.4670313 -183.5 169 C-182.24095481 167.81104599 -180.98054514 166.62353518 -179.71875 165.4375 C-178.80609375 164.56738281 -178.80609375 164.56738281 -177.875 163.6796875 C-176 162 -176 162 -173.9375 160.5078125 C-172.02705929 159.10530642 -170.46098481 157.86759729 -169 156 C-168.90238467 152.73493551 -169.0988165 151.01489331 -170 148 C-170.30091553 146.90026855 -170.30091553 146.90026855 -170.60791016 145.77832031 C-171.29790767 143.37784188 -172.04908679 141.00309089 -172.8125 138.625 C-175.75467942 129.18232641 -178.0118134 119.68363827 -180 110 C-180.33 110 -180.66 110 -181 110 Z M-98.33984375 116.21875 C-99.40396484 116.90453125 -100.46808594 117.5903125 -101.56445312 118.296875 C-102.68886293 119.03115683 -103.8132117 119.76553214 -104.9375 120.5 C-106.01580078 121.19609375 -107.09410156 121.8921875 -108.20507812 122.609375 C-119.08711568 129.65107696 -129.86899093 136.83454306 -140.5 144.25 C-141.799375 145.1471875 -141.799375 145.1471875 -143.125 146.0625 C-144.37796875 146.93648437 -144.37796875 146.93648437 -145.65625 147.828125 C-146.39681641 148.3427832 -147.13738281 148.85744141 -147.90039062 149.38769531 C-150.1310597 151.10064166 -152.05474854 152.97232263 -154 155 C-146.92307433 174.09491669 -139.23462551 192.8355221 -130 211 C-127.25041981 209.72657692 -125.07527324 208.36674683 -122.8203125 206.34765625 C-122.22871338 205.82421631 -121.63711426 205.30077637 -121.02758789 204.76147461 C-120.39973389 204.20081299 -119.77187988 203.64015137 -119.125 203.0625 C-111.95355564 196.75857611 -104.58574726 190.7956671 -97 185 C-96.3910791 184.53271484 -95.7821582 184.06542969 -95.15478516 183.58398438 C-86.13255706 176.67652355 -76.92413762 170.07120918 -67.56201172 163.6315918 C-66.75135254 163.07125244 -65.94069336 162.51091309 -65.10546875 161.93359375 C-64.38512451 161.43915771 -63.66478027 160.94472168 -62.92260742 160.43530273 C-61.10365312 159.07738117 -59.55623575 157.64790485 -58 156 C-65.78526927 145.14459046 -73.63925398 134.34931846 -81.71337891 123.70654297 C-82.88803933 122.14850191 -84.04461797 120.57687036 -85.19921875 119.00390625 C-86.12154297 117.76447266 -86.12154297 117.76447266 -87.0625 116.5 C-87.56910156 115.8090625 -88.07570313 115.118125 -88.59765625 114.40625 C-89.06042969 113.9421875 -89.52320313 113.478125 -90 113 C-93.78859705 113 -95.17398915 114.16603092 -98.33984375 116.21875 Z M-173.1875 168.3125 C-174.25605225 169.1176001 -174.25605225 169.1176001 -175.34619141 169.93896484 C-180.22248759 173.62507755 -185.06449564 177.3534677 -189.875 181.125 C-190.4630542 181.58559814 -191.0511084 182.04619629 -191.65698242 182.52075195 C-196.12200829 185.60023946 -196.12200829 185.60023946 -198.37109375 190.16015625 C-198.92274557 214.27058599 -190.25075058 238.03735531 -179 259 C-174.15347273 254.9660463 -169.60925564 250.73514257 -165.18359375 246.24609375 C-164.56404312 245.6227565 -163.94449249 244.99941925 -163.3061676 244.35719299 C-161.34747051 242.38639918 -159.39207462 240.41238189 -157.4375 238.4375 C-154.8558237 235.82907388 -152.2707483 233.22408514 -149.68359375 230.62109375 C-149.10218124 230.0313829 -148.52076874 229.44167206 -147.92173767 228.83409119 C-144.43740316 225.3291138 -140.84499812 222.10631644 -137 219 C-137.64686764 215.03190147 -139.70695061 212.02328859 -141.8125 208.6875 C-150.74408869 194.15184928 -158.72699964 178.87509302 -165 163 C-167.62666348 163 -171.05073146 166.69651034 -173.1875 168.3125 Z M-57.8125 173.625 C-59.00770264 174.36109497 -59.00770264 174.36109497 -60.22705078 175.11206055 C-82.15101479 188.72157687 -103.28710767 203.6222466 -124 219 C-123.39578141 221.86797175 -122.53717154 224.05102441 -120.99609375 226.5390625 C-120.5889917 227.19720947 -120.18188965 227.85535645 -119.76245117 228.53344727 C-119.32521729 229.22365967 -118.8879834 229.91387207 -118.4375 230.625 C-117.98930908 231.337771 -117.54111816 232.05054199 -117.0793457 232.78491211 C-113.92233012 237.73185527 -110.52345207 242.36159194 -106.76171875 246.87109375 C-104.33582912 249.80260117 -102.17214897 252.87753585 -100 256 C-111.01124249 248.44326496 -120.11954392 238.54040001 -128.29296875 228.046875 C-129.84137539 225.91244773 -129.84137539 225.91244773 -132 225 C-140.78681826 231.51769487 -149.45384441 238.16982971 -158 245 C-158.74137207 245.59103516 -159.48274414 246.18207031 -160.24658203 246.79101562 C-162.588294 248.6643852 -164.92033002 250.54918414 -167.25 252.4375 C-168.35927856 253.32441528 -168.35927856 253.32441528 -169.4909668 254.22924805 C-170.179729 254.79168213 -170.86849121 255.35411621 -171.578125 255.93359375 C-172.19075195 256.42915771 -172.80337891 256.92472168 -173.43457031 257.43530273 C-175.2115572 259.21145822 -176.18964933 260.61782354 -177 263 C-175.73398982 265.51384796 -174.48117595 267.59635881 -172.875 269.875 C-172.47023438 270.47441406 -172.06546875 271.07382812 -171.6484375 271.69140625 C-170.84100409 272.88444086 -170.0269346 274.07301312 -169.20605469 275.25683594 C-167.43604499 277.81510907 -165.72009234 280.40797144 -164 283 C-110.21590114 279.12438111 -58.50128999 245.63515802 -16 215 C-16.61518384 211.64304191 -17.81867553 209.59744488 -19.88671875 206.90234375 C-20.48911377 206.10948975 -21.09150879 205.31663574 -21.7121582 204.49975586 C-22.364021 203.65421143 -23.01588379 202.80866699 -23.6875 201.9375 C-25.05024312 200.14641433 -26.41220205 198.35473178 -27.7734375 196.5625 C-28.47178711 195.64597656 -29.17013672 194.72945312 -29.88964844 193.78515625 C-33.23811283 189.36598899 -36.52754853 184.90397643 -39.8125 180.4375 C-40.40442139 179.63497803 -40.99634277 178.83245605 -41.60620117 178.00561523 C-43.79425397 175.0332934 -45.95219521 172.07170718 -48 169 C-51.66656242 169 -54.75725586 171.73432096 -57.8125 173.625 Z " fill="#2F2B68" transform="translate(339,44)"/>
<path d="M0 0 C0.66 0 1.32 0 2 0 C1.48347843 7.0873533 -0.60933523 13.0933478 -3.1875 19.6875 C-3.62674805 20.81599365 -4.06599609 21.9444873 -4.51855469 23.10717773 C-13.56969076 45.8583857 -24.52045124 71.64257315 -39.39453125 91.20703125 C-41.46877726 94.81551275 -41.31550221 97.73530254 -41.0625 101.75 C-39.66115803 152.06660574 -59.87895891 200.60422284 -94 237 C-94.45971191 237.49371094 -94.91942383 237.98742187 -95.39306641 238.49609375 C-128.3260414 273.58376687 -175.49979053 293.94846076 -223.42578125 296.109375 C-238.51315932 296.58456801 -238.51315932 296.58456801 -245.609375 295.16015625 C-258.57855332 292.65236543 -266.70132798 296.23417776 -278.41015625 301.90625 C-317.92920932 320.97994759 -366.88193219 328.44524418 -410 320 C-410.72219727 319.86078125 -411.44439453 319.7215625 -412.18847656 319.578125 C-433.0785438 315.38263032 -453.28921677 305.57910603 -466.15234375 288.0703125 C-481.04137107 265.39019268 -480.60741352 239.70375643 -476 214 C-475.67 213.01 -475.34 212.02 -475 211 C-474.34 211 -473.68 211 -473 211 C-472.96261719 212.31871094 -472.92523438 213.63742187 -472.88671875 214.99609375 C-471.96693219 242.04998115 -467.31647299 266.42230785 -447 286 C-426.02520437 303.87009266 -395.86022824 307.81265743 -369.28125 305.79345703 C-304.22143002 299.88400566 -244.98852888 268.3626767 -192 232 C-191.30342285 231.52224121 -190.6068457 231.04448242 -189.88916016 230.55224609 C-176.01542623 220.97578259 -162.74128675 210.50948118 -149.9609375 199.5234375 C-147.07681124 197.06546182 -144.14244304 194.68455016 -141.1875 192.3125 C-137.25882578 189.11831705 -133.62910728 185.78945732 -130.14453125 182.1171875 C-128.34012318 180.33578645 -126.50523631 178.70966575 -124.578125 177.06640625 C-119.02121095 172.24044555 -113.8646095 167.01409858 -108.67260742 161.80297852 C-106.941053 160.066064 -105.20421641 158.33456111 -103.46679688 156.60351562 C-97.7646276 150.90512533 -92.19673357 145.16986539 -87 139 C-86.05072082 137.90517218 -85.10023178 136.81139202 -84.1484375 135.71875 C-60.58253244 108.43257631 -39.4127026 79.63960641 -22 48 C-21.53609863 47.15727539 -21.07219727 46.31455078 -20.59423828 45.44628906 C-12.56040376 30.73537246 -5.82233976 15.70966672 0 0 Z M-72 137 C-73.01707031 138.32451172 -73.01707031 138.32451172 -74.0546875 139.67578125 C-79.37780297 146.5580569 -84.82373838 153.18022258 -90.7421875 159.5625 C-92.66218871 161.63530407 -94.52996818 163.73583268 -96.375 165.875 C-105.29920035 176.07989425 -114.67841095 185.78145568 -124.25 195.375 C-124.76924042 195.89682861 -125.28848083 196.41865723 -125.82345581 196.95629883 C-131.70249094 202.85840718 -137.65855797 208.59074067 -144 214 C-145.60768373 215.45445517 -147.21239715 216.91220895 -148.8125 218.375 C-162.63991727 230.82176744 -177.56672862 242.15394767 -192.625 253.0625 C-193.34631104 253.58618164 -194.06762207 254.10986328 -194.81079102 254.64941406 C-198.95423967 257.62557892 -203.1655938 260.39838788 -207.54443359 263.01733398 C-208.02477051 263.34161377 -208.50510742 263.66589355 -209 264 C-209 264.33 -209 264.66 -209 265 C-202.22018832 264.52937819 -195.99058866 263.44179273 -189.5 261.4375 C-188.21077637 261.04268433 -188.21077637 261.04268433 -186.89550781 260.63989258 C-167.86991939 254.61279562 -149.72369015 245.30444972 -134 233 C-133.16855469 232.37222656 -132.33710938 231.74445313 -131.48046875 231.09765625 C-103.93753734 209.58361238 -77.29792377 175.38159423 -71 140 C-71.33 139.01 -71.66 138.02 -72 137 Z " fill="#2D2866" transform="translate(538,120)"/>
<path d="M0 0 C0.66 0 1.32 0 2 0 C0.47455886 5.45171862 -2.08284614 9.89213223 -5 14.6875 C-5.51836426 15.54400146 -6.03672852 16.40050293 -6.57080078 17.28295898 C-20.55353315 40.12681798 -35.67650063 62.54907242 -53 83 C-53.89234718 84.06605475 -54.78425048 85.13248115 -55.67578125 86.19921875 C-60.58230735 92.05275302 -65.56094007 97.8263387 -70.70727539 103.47167969 C-72.12120589 105.0309028 -73.52700552 106.59759918 -74.91918945 108.17626953 C-80.95843552 115.00541577 -87.32015374 121.47358155 -93.77514648 127.90551758 C-95.5667595 129.6917467 -97.35293055 131.48329347 -99.13867188 133.27539062 C-104.92405261 139.06448499 -110.7451427 144.71411934 -117 150 C-118.20385382 151.05628359 -119.40567815 152.11488467 -120.60546875 153.17578125 C-127.92936338 159.60491515 -135.35084491 165.80565974 -143.16699219 171.63085938 C-145.19434983 173.145167 -147.20989764 174.67461034 -149.2265625 176.203125 C-167.29056138 189.79943395 -186.22373366 202.04647164 -206 213 C-206.7513623 213.42087891 -207.50272461 213.84175781 -208.27685547 214.27539062 C-250.25558533 237.66777508 -303.18772547 256.66986316 -351.375 244.12109375 C-370.21103425 238.25935913 -385.88339347 226.9005149 -395.6640625 209.5546875 C-407.46127792 186.99510012 -409.67193336 164.09584958 -409 139 C-408.34 139 -407.68 139 -407 139 C-405.95650761 143.53715912 -404.96502043 148.0736951 -404.140625 152.65625 C-399.7282401 176.95424766 -391.38513051 200.97668398 -370.39453125 215.89453125 C-345.42967476 231.37906249 -316.78840353 230.28883644 -289 224 C-242.13150336 212.71056312 -199.02606983 187.64109228 -160 160 C-159.27329102 159.4858252 -158.54658203 158.97165039 -157.79785156 158.44189453 C-144.08420999 148.70784063 -130.85298024 138.53618284 -118.07421875 127.60546875 C-115.30300845 125.24135813 -112.47072811 122.96156042 -109.625 120.6875 C-104.35173913 116.402493 -99.40618061 111.80695987 -94.47705078 107.13549805 C-91.50368764 104.31970945 -88.5085399 101.56542609 -85.390625 98.91015625 C-79.74721713 94.00605051 -74.51996826 88.66898514 -69.24536133 83.37573242 C-67.44137915 81.56639067 -65.63211335 79.76245681 -63.82226562 77.95898438 C-58.00042466 72.14049908 -52.32353975 66.28397711 -47 60 C-45.54554483 58.39231627 -44.08779105 56.78760285 -42.625 55.1875 C-37.89409778 49.93803345 -33.43274253 44.50173188 -29 39 C-28.08660836 37.89007259 -27.17251565 36.78072183 -26.2578125 35.671875 C-18.46190595 26.15343436 -11.38880617 16.19842908 -4.43530273 6.05200195 C-3.96165283 5.37484131 -3.48800293 4.69768066 -3 4 C-2.48574463 3.25258545 -1.97148926 2.5051709 -1.44165039 1.73510742 C-0.96590576 1.16252197 -0.49016113 0.58993652 0 0 Z " fill="#C33136" transform="translate(482,148)"/>
<path d="M0 0 C6.50102591 5.30588781 10.16675301 11.3166075 11.05859375 19.765625 C11.23195604 29.51470458 10.21554746 36.13514561 3.66796875 43.53125 C-2.96885035 49.94722924 -9.10726079 52.30168108 -18.25 52.6875 C-26.93951171 52.44397228 -34.24070773 49.46299674 -40.3125 43.25 C-45.81772954 35.98125683 -48.305933 28.37429998 -47.3125 19.25 C-45.27711008 10.26159925 -40.82969261 3.57664801 -33.3125 -1.75 C-22.52298538 -7.68538331 -10.07844961 -7.11196256 0 0 Z M-35.3125 9.25 C-39.8631977 15.3459502 -40.27949808 21.85296318 -39.3125 29.25 C-37.27650821 36.45427864 -32.27489028 40.89398416 -26 44.625 C-19.09445108 46.23094161 -12.73383672 45.83197691 -6.35546875 42.6484375 C-1.09931913 39.05053776 2.3961291 33.44858033 3.6875 27.25 C4.32928776 20.72515772 3.24682025 15.81330729 -0.3125 10.25 C-5.31338974 4.54399566 -10.12199468 1.93296123 -17.6875 0.9375 C-24.6738969 1.76921392 -30.39739125 4.10628154 -35.3125 9.25 Z " fill="#39346E" transform="translate(589.3125,477.75)"/>
<path d="M0 0 C2.94600165 2.37580778 4.60903005 4.33837773 5.5 8.125 C4.18 9.115 2.86 10.105 1.5 11.125 C-1.28518047 9.94665442 -3.01494326 8.66727266 -5.3125 6.625 C-9.8906836 2.76608215 -14.54410009 1.88967121 -20.4375 2.1875 C-25.64182666 2.87665741 -29.59624429 4.59088398 -33.5 8.125 C-38.42164528 14.63013115 -39.26939695 21.20346242 -38.5 29.125 C-36.75764916 35.04899285 -33.53762353 38.699416 -28.5 42.125 C-23.03896391 44.67348351 -17.06749144 45.23236948 -11.28515625 43.4375 C-4.51422293 40.41138455 -2.21913688 35.92284221 0.5 29.125 C-5.11 29.125 -10.72 29.125 -16.5 29.125 C-16.5 23.125 -16.5 23.125 -15.5 22.125 C-13.79227642 22.03786169 -12.08101351 22.01799993 -10.37109375 22.02734375 C-8.81938477 22.03217773 -8.81938477 22.03217773 -7.23632812 22.03710938 C-6.14771484 22.04548828 -5.05910156 22.05386719 -3.9375 22.0625 C-2.2987793 22.06926758 -2.2987793 22.06926758 -0.62695312 22.07617188 C2.08208495 22.08800174 4.79101599 22.10448457 7.5 22.125 C9.01745151 29.19234263 7.69704837 34.61968837 3.9375 40.8125 C-0.00889096 46.3490829 -5.6693026 50.93091192 -12.5 52.125 C-21.98559168 52.97341802 -29.30108063 51.47541471 -37.3125 46.3125 C-43.86377838 39.76122162 -47.18763572 32.71221142 -47.6328125 23.32421875 C-47.20894534 14.51027507 -44.1304821 7.21296595 -37.625 1.1875 C-26.42373997 -7.77772695 -11.78638735 -8.29967022 0 0 Z " fill="#3B3770" transform="translate(494.5,477.875)"/>
<path d="M0 0 C18.62068966 0 18.62068966 0 24 3 C27.60534723 6.60534723 29.91389444 10.14894921 30.0703125 15.328125 C29.75384236 21.54583242 28.5672215 24.75142186 24 29 C21.28509275 30.75670469 20.28565953 31 17 31 C19.10268034 34.08434935 21.2074043 37.16729875 23.3125 40.25 C23.90740234 41.12269531 24.50230469 41.99539063 25.11523438 42.89453125 C25.69208984 43.73886719 26.26894531 44.58320312 26.86328125 45.453125 C27.65665894 46.61569824 27.65665894 46.61569824 28.46606445 47.80175781 C29.50069716 49.28446239 30.57920583 50.73736812 31.69604492 52.15917969 C33 54 33 54 33 56 C29.64634139 56.73170733 28.19816803 57.03063887 25 56 C21.43666452 52.38801831 18.7750195 48.23190475 16 44 C14.65054958 42.08000988 13.29686783 40.16298133 11.9375 38.25 C10.968125 36.8475 9.99875 35.445 9 34 C8.67 41.26 8.34 48.52 8 56 C5.36 56 2.72 56 0 56 C0 37.52 0 19.04 0 0 Z M8 7 C8 12.94 8 18.88 8 25 C16.35371403 25.82018335 16.35371403 25.82018335 20.0625 23 C22.74919973 18.83994881 22.6995733 16.89701312 22 12 C19.79259319 9.03141843 18.51402627 8.17134209 15 7 C12.69 7 10.38 7 8 7 Z " fill="#3B3670" transform="translate(376,473)"/>
<path d="M0 0 C0.66 0 1.32 0 2 0 C8.16819051 13.74643878 14.27986597 27.51436325 20.1875 41.375 C20.89096558 43.01251221 20.89096558 43.01251221 21.60864258 44.68310547 C22.04072021 45.70291504 22.47279785 46.72272461 22.91796875 47.7734375 C23.29719482 48.66466309 23.6764209 49.55588867 24.06713867 50.47412109 C24.99116781 52.97608536 25.55317719 55.37451044 26 58 C23.36 58 20.72 58 18 58 C15.03 51.07 15.03 51.07 12 44 C4.41 43.67 -3.18 43.34 -11 43 C-11.99 45.97 -12.98 48.94 -14 52 C-14.95723017 54.02081924 -15.93988057 56.03120677 -17 58 C-19.64 58 -22.28 58 -25 58 C-23.67317231 53.82602123 -22.12151821 49.86649039 -20.3125 45.87890625 C-19.51815552 44.11969849 -19.51815552 44.11969849 -18.70776367 42.32495117 C-18.42887299 41.71058197 -18.1499823 41.09621277 -17.86264038 40.46322632 C-16.39806494 37.2362071 -14.94312448 34.00485343 -13.48828125 30.7734375 C-13.19504471 30.12249619 -12.90180817 29.47155487 -12.59968567 28.80088806 C-8.30147099 19.24379149 -4.14778057 9.6231355 0 0 Z M0 17 C-1.17094005 19.7899439 -2.33690927 22.58178597 -3.5 25.375 C-3.83386719 26.1690625 -4.16773438 26.963125 -4.51171875 27.78125 C-4.98544922 28.92207031 -4.98544922 28.92207031 -5.46875 30.0859375 C-5.76201172 30.7876709 -6.05527344 31.4894043 -6.35742188 32.21240234 C-7.11275781 33.99708561 -7.11275781 33.99708561 -7 36 C-1.72 36 3.56 36 9 36 C6.93991112 29.27760471 4.28217236 23.21407336 1 17 C0.67 17 0.34 17 0 17 Z " fill="#3E3A73" transform="translate(311,471)"/>
<path d="M0 0 C1.71484375 1.65625 1.71484375 1.65625 2.10546875 3.69921875 C1.97526042 5.68489583 1.84505208 7.67057292 1.71484375 9.65625 C-1.00238767 8.61730858 -3.50069164 7.53378671 -6.03515625 6.09375 C-12.6704405 3.15891273 -18.49969634 3.04292042 -25.27734375 5.640625 C-30.03852791 8.04900609 -32.89887734 12.00300612 -35.28515625 16.65625 C-37.18548305 23.03026281 -36.99286288 29.66038433 -34.39453125 35.80078125 C-31.77281187 40.18569923 -27.9504789 42.85979134 -23.41015625 45.03125 C-15.23394056 46.66649314 -9.63213966 45.50533882 -2.28515625 41.65625 C-0.96515625 40.99625 0.35484375 40.33625 1.71484375 39.65625 C1.71484375 42.62625 1.71484375 45.59625 1.71484375 48.65625 C-7.2018198 53.26319284 -14.86897046 55.32436056 -25.01171875 53.04296875 C-32.90924449 50.267832 -38.7704285 44.99786753 -42.78515625 37.65625 C-45.625062 30.30815306 -45.55894094 21.17613117 -43.4375 13.6484375 C-40.20499207 6.48213178 -34.76218118 1.04352824 -27.59765625 -2.21875 C-18.15247642 -5.42654692 -8.75075494 -5.14574307 0 0 Z " fill="#37326D" transform="translate(111.28515625,476.34375)"/>
<path d="M0 0 C0 2.97 0 5.94 0 9 C-2.24265777 7.87867111 -4.47043685 6.71997807 -6.625 5.4375 C-12.37283504 2.98934804 -18.23248211 2.09610508 -24.25 4.125 C-29.34396044 6.40956408 -32.86831834 9.18930935 -35.875 14 C-38.28672895 20.59976125 -38.26061216 29.03403285 -35.5 35.5 C-32.49900527 40.58770791 -27.45709846 43.18096718 -22 45 C-14.0861603 46.01645648 -8.76744708 43.969368 -2 40 C-1.34 39.67 -0.68 39.34 0 39 C0 41.97 0 44.94 0 48 C-8.68271996 52.41252982 -15.92113312 54.74971992 -25.765625 52.31640625 C-34.51257576 49.08325421 -39.71469146 44.33982075 -44.0546875 36.1484375 C-47.25170947 28.88247847 -46.86089774 20.78000914 -44.5 13.3125 C-41.48284167 5.90193568 -36.5422264 0.93637232 -29.3125 -2.4375 C-18.64075232 -6.57850294 -10.01639039 -5.0081952 0 0 Z " fill="#39356F" transform="translate(250,477)"/>
<path d="M0 0 C19.55 0 19.55 0 25.875 5.5 C29.51869496 9.78669995 29.3351226 13.86602782 29.28515625 19.26953125 C28.7845947 24.06257952 26.44630755 26.72900246 22.9375 29.8125 C17.4609559 33.16909155 14.38015044 32 7 32 C7 39.92 7 47.84 7 56 C4.69 56 2.38 56 0 56 C0 37.52 0 19.04 0 0 Z M7 7 C7 12.94 7 18.88 7 25 C15.40371521 25.67082039 15.40371521 25.67082039 20 23 C22.3020949 19.77706714 22.47510654 16.88003676 22 13 C20.32877464 10.31410209 19.10908963 8.49717811 16.1875 7.1875 C13.13555303 6.92590455 10.06313769 7 7 7 Z " fill="#312C69" transform="translate(0,473)"/>
<path d="M0 0 C0.66 0 1.32 0 2 0 C1.48343004 7.08801736 -0.61099747 13.09217544 -3.1875 19.6875 C-3.83114502 21.35304932 -3.83114502 21.35304932 -4.48779297 23.05224609 C-9.89839331 36.72023157 -16.42190279 49.86376514 -23 63 C-23.33 62.34 -23.66 61.68 -24 61 C-25.98 61.99 -27.96 62.98 -30 64 C-28.68216892 60.53399241 -27.16251698 57.33731325 -25.34765625 54.10546875 C-19.5256193 43.61864216 -13.93088636 33.09776035 -8.9375 22.1875 C-8.49736572 21.22932373 -8.05723145 20.27114746 -7.60375977 19.28393555 C-4.75283305 12.9603521 -2.28217137 6.5494267 0 0 Z " fill="#4B477D" transform="translate(538,120)"/>
<path d="M0 0 C0.99 0 1.98 0 3 0 C3.99 2.31 4.98 4.62 6 7 C8.22189824 4.77810176 8.92598892 2.91517292 10 0 C10.66 0 11.32 0 12 0 C13.32 2.64 14.64 5.28 16 8 C16.99 5.36 17.98 2.72 19 0 C19.99 0 20.98 0 22 0 C21.39363767 5.76044212 19.24341721 10.72014369 17 16 C16.01 16 15.02 16 14 16 C13.01 13.36 12.02 10.72 11 8 C10.01 10.64 9.02 13.28 8 16 C7.01 16 6.02 16 5 16 C4.16280617 13.70967689 3.3301071 11.41789043 2.5 9.125 C2.14228516 8.14853516 2.14228516 8.14853516 1.77734375 7.15234375 C0 2.2265625 0 2.2265625 0 0 Z " fill="#63608F" transform="translate(269,544)"/>
<path d="M0 0 C2.375 1 2.375 1 4 3 C5.37736722 7.13210167 5.44897396 10.02042045 3.625 14 C0.32401184 16.5150386 -1.79438578 16.72615669 -5.87109375 16.484375 C-8 16 -8 16 -10.5625 13.875 C-12.26523868 10.46952264 -12.70338515 8.75138748 -12 5 C-8.52074434 0.15012847 -5.8769667 -0.85483152 0 0 Z M-7.9375 4.125 C-9.37604008 6.66360013 -9.50262362 8.12786504 -9 11 C-7.40383995 13.00965774 -7.40383995 13.00965774 -5 14 C-2.36462492 14.00635246 -2.36462492 14.00635246 0 13 C2.36692966 10.15173402 2.36692966 10.15173402 1.625 6.8125 C1.41875 5.884375 1.2125 4.95625 1 4 C-3.61009488 2.82991255 -3.61009488 2.82991255 -7.9375 4.125 Z " fill="#5C5989" transform="translate(226,544)"/>
<path d="M0 0 C3.49353838 1.74676919 5.13945763 2.91405215 7.75 5.625 C8.67039062 6.57246094 8.67039062 6.57246094 9.609375 7.5390625 C10.29773438 8.26222656 10.29773438 8.26222656 11 9 C11.33 6.03 11.66 3.06 12 0 C12.99 0 13.98 0 15 0 C15 5.28 15 10.56 15 16 C10.55004949 13.77502475 8.39915309 11.55366005 5 8 C4.67 10.64 4.34 13.28 4 16 C3.01 16 2.02 16 1 16 C0.67 10.72 0.34 5.44 0 0 Z " fill="#77759F" transform="translate(548,544)"/>
<path d="M0 0 C2.375 1.375 2.375 1.375 4 3 C4 3.66 4 4.32 4 5 C0.7 4.67 -2.6 4.34 -6 4 C-8.33391203 6.78114056 -8.33391203 6.78114056 -7.625 9.6875 C-7.315625 10.8321875 -7.315625 10.8321875 -7 12 C-4.65466049 12.76956136 -4.65466049 12.76956136 -2 13 C-0.1645201 11.66621425 -0.1645201 11.66621425 1 10 C-0.32 10 -1.64 10 -3 10 C-3 9.34 -3 8.68 -3 8 C-0.69 8 1.62 8 4 8 C4.36576869 12.51114724 4.36576869 12.51114724 2.76953125 14.64453125 C0.54132857 16.35134434 -0.71766619 16.40282334 -3.5 16.375 C-4.2734375 16.38273438 -5.046875 16.39046875 -5.84375 16.3984375 C-8.51893752 15.90410937 -9.37227148 15.15039364 -11 13 C-11.9375 9.625 -11.9375 9.625 -12 6 C-8.65661269 0.696696 -6.18828812 -0.49506305 0 0 Z " fill="#535082" transform="translate(590,544)"/>
<path d="M0 0 C2.375 1.375 2.375 1.375 4 3 C4 3.66 4 4.32 4 5 C3.28972656 4.91621094 2.57945313 4.83242188 1.84765625 4.74609375 C0.46900391 4.59333984 0.46900391 4.59333984 -0.9375 4.4375 C-1.85402344 4.33308594 -2.77054688 4.22867188 -3.71484375 4.12109375 C-4.84599609 4.06115234 -4.84599609 4.06115234 -6 4 C-7.20561184 4.98267859 -7.20561184 4.98267859 -7.09765625 6.84765625 C-7.08605469 7.57855469 -7.07445313 8.30945313 -7.0625 9.0625 C-7.041875 10.361875 -7.02125 11.66125 -7 13 C-4.08347826 13.16681109 -4.08347826 13.16681109 -1 13 C-0.34 12.34 0.32 11.68 1 11 C-0.32 10.67 -1.64 10.34 -3 10 C-3 9.34 -3 8.68 -3 8 C-0.36 8 2.28 8 5 8 C4.65447612 10.55687669 4.24912987 12.57501375 2.9375 14.8125 C-0.22249875 16.74927342 -3.46162609 16.61939342 -7 16 C-9.5 14.5 -9.5 14.5 -11 12 C-11.60443392 9.19082139 -11.66040854 6.80242927 -11 4 C-7.71493877 0.13522209 -4.98306141 -0.74215808 0 0 Z " fill="#4B477C" transform="translate(102,544)"/>
<path d="M0 0 C0.66 0 1.32 0 2 0 C1.53500623 7.68663165 -1.12757354 14.25757057 -3.9375 21.375 C-4.39318359 22.56222656 -4.84886719 23.74945313 -5.31835938 24.97265625 C-8.72743056 33.72743056 -8.72743056 33.72743056 -11 36 C-11 35.34 -11 34.68 -11 34 C-12.485 34.495 -12.485 34.495 -14 35 C-12.26632542 29.35852921 -9.91720934 24.02675649 -7.5625 18.625 C-4.88120017 12.4663211 -2.29883486 6.31255619 0 0 Z " fill="#585486" transform="translate(538,120)"/>
<path d="M0 0 C3.75843663 1.87921831 5.14975355 3.02470615 7.75 6.125 C8.36359375 6.84945312 8.9771875 7.57390625 9.609375 8.3203125 C10.29773438 9.15175781 10.29773438 9.15175781 11 10 C11.33 6.7 11.66 3.4 12 0 C12.66 0 13.32 0 14 0 C14.33 5.28 14.66 10.56 15 16 C10.64856384 14.91214096 9.9792886 14.24413811 7.25 10.9375 C6.63640625 10.20402344 6.0228125 9.47054687 5.390625 8.71484375 C4.93171875 8.14894531 4.4728125 7.58304688 4 7 C3.67 9.97 3.34 12.94 3 16 C2.01 16 1.02 16 0 16 C0 10.72 0 5.44 0 0 Z " fill="#676392" transform="translate(473,544)"/>
<path d="M0 0 C0.99 0 1.98 0 3 0 C3 1.98 3 3.96 3 6 C4.98 6 6.96 6 9 6 C9 4.02 9 2.04 9 0 C9.99 0 10.98 0 12 0 C12 5.28 12 10.56 12 16 C11.01 16 10.02 16 9 16 C9 13.69 9 11.38 9 9 C7.02 9 5.04 9 3 9 C3 11.31 3 13.62 3 16 C2.01 16 1.02 16 0 16 C0 10.72 0 5.44 0 0 Z " fill="#3D396F" transform="translate(122,544)"/>
<path d="M0 0 C0.99 0 1.98 0 3 0 C3 1.98 3 3.96 3 6 C4.98 6 6.96 6 9 6 C9 4.02 9 2.04 9 0 C9.99 0 10.98 0 12 0 C12 5.28 12 10.56 12 16 C11.01 16 10.02 16 9 16 C9 13.69 9 11.38 9 9 C7.02 9 5.04 9 3 9 C3 11.31 3 13.62 3 16 C2.01 16 1.02 16 0 16 C0 10.72 0 5.44 0 0 Z " fill="#534F83" transform="translate(426,544)"/>
<path d="M0 0 C0.66 0 1.32 0 2 0 C0.40271781 6.00220949 -2.73746357 10.9327434 -5.9375 16.1875 C-6.74477539 17.54004883 -6.74477539 17.54004883 -7.56835938 18.91992188 C-11.95850578 26.18991772 -11.95850578 26.18991772 -15 29 C-15.99 27.68 -16.98 26.36 -18 25 C-17.63237549 24.49138428 -17.26475098 23.98276855 -16.88598633 23.45874023 C-15.19462528 21.11847052 -13.50356087 18.77798662 -11.8125 16.4375 C-11.23435547 15.63763672 -10.65621094 14.83777344 -10.06054688 14.01367188 C-9.20493164 12.8293457 -9.20493164 12.8293457 -8.33203125 11.62109375 C-7.76822754 10.84362793 -7.20442383 10.06616211 -6.62353516 9.26513672 C-5.57623184 7.80395173 -4.54343798 6.33220418 -3.52880859 4.84814453 C-2.39803224 3.19994352 -1.20509723 1.59466685 0 0 Z " fill="#DB7A7B" transform="translate(482,148)"/>
<path d="M0 0 C6 0 6 0 7.9375 1.125 C9.52513015 3.92670027 8.74070176 5.96985644 8 9 C7.34 9 6.68 9 6 9 C6.66 9.78375 7.32 10.5675 8 11.375 C10 14 10 14 10 16 C8.68 16 7.36 16 6 16 C5.34 15.01 4.68 14.02 4 13 C3.67 13.99 3.34 14.98 3 16 C2.01 16 1.02 16 0 16 C0 10.72 0 5.44 0 0 Z M3 3 C3 4.32 3 5.64 3 7 C3.99 6.67 4.98 6.34 6 6 C6 5.01 6 4.02 6 3 C5.01 3 4.02 3 3 3 Z " fill="#736F9A" transform="translate(246,544)"/>
<path d="M0 0 C3.77493458 4.4100539 6.66001869 9.22075992 9.625 14.1875 C10.59372478 15.80756473 11.56496597 17.42612819 12.5390625 19.04296875 C13.17642334 20.11067505 13.17642334 20.11067505 13.82666016 21.19995117 C15.0041935 23.14168769 15.0041935 23.14168769 17 25 C16.01 25.99 15.02 26.98 14 28 C13.34 27.67 12.68 27.34 12 27 C11.86343994 26.41766602 11.72687988 25.83533203 11.58618164 25.23535156 C10.8293434 22.34921622 9.42823694 20.60340305 7.62109375 18.234375 C6.94755859 17.34492188 6.27402344 16.45546875 5.58007812 15.5390625 C4.87302734 14.61867187 4.16597656 13.69828125 3.4375 12.75 C2.37112305 11.34621094 2.37112305 11.34621094 1.28320312 9.9140625 C-0.47219009 7.60495465 -2.23340129 5.3005393 -4 3 C-2.68 2.01 -1.36 1.02 0 0 Z " fill="#535084" transform="translate(310,232)"/>
<path d="M0 0 C6 0 6 0 7.9375 1.1875 C9 3 9 3 8.8125 5.5625 C8 8 8 8 6 10 C7.98 12.97 7.98 12.97 10 16 C8.68 16 7.36 16 6 16 C5.34 15.01 4.68 14.02 4 13 C3.67 13.99 3.34 14.98 3 16 C2.01 16 1.02 16 0 16 C0 10.72 0 5.44 0 0 Z M3 3 C3 4.32 3 5.64 3 7 C3.99 6.67 4.98 6.34 6 6 C5.67 5.01 5.34 4.02 5 3 C4.34 3 3.68 3 3 3 Z " fill="#474278" transform="translate(332,544)"/>
<path d="M0 0 C0.99 0 1.98 0 3 0 C3.33 1.65 3.66 3.3 4 5 C4.763125 4.175 5.52625 3.35 6.3125 2.5 C9 0 9 0 12 0 C10.768606 3.69418201 8.79208646 5.35109746 6 8 C6.66 8.61875 7.32 9.2375 8 9.875 C10 12 10 12 10 14 C10.66 14 11.32 14 12 14 C12 14.66 12 15.32 12 16 C8.75791433 15.64950425 7.38472296 15.43778819 5.1875 12.9375 C4.795625 12.298125 4.40375 11.65875 4 11 C3.67 12.65 3.34 14.3 3 16 C2.01 16 1.02 16 0 16 C0 10.72 0 5.44 0 0 Z " fill="#555184" transform="translate(503,544)"/>
<path d="M0 0 C7.05263158 0 7.05263158 0 10 2 C12.34549674 5.51824511 12.57991403 6.85775694 12 11 C9.9375 13.875 9.9375 13.875 7 16 C4.69 16 2.38 16 0 16 C0 10.72 0 5.44 0 0 Z M2 3 C2 6.3 2 9.6 2 13 C3.65 13 5.3 13 7 13 C9.29637779 10.24104365 9.29637779 10.24104365 8.75 7.4375 C8.16191948 4.84999433 8.16191948 4.84999433 6 3 C4.68 3 3.36 3 2 3 Z " fill="#3E3A72" transform="translate(357,544)"/>
<path d="M0 0 C2.97 0 5.94 0 9 0 C9 0.99 9 1.98 9 3 C7.02 3 5.04 3 3 3 C3 3.99 3 4.98 3 6 C4.98 6 6.96 6 9 6 C9 6.99 9 7.98 9 9 C7.02 9 5.04 9 3 9 C3 10.32 3 11.64 3 13 C4.98 13 6.96 13 9 13 C9 13.99 9 14.98 9 16 C6.03 16 3.06 16 0 16 C0 10.72 0 5.44 0 0 Z " fill="#4C4779" transform="translate(48,544)"/>
<path d="M0 0 C3 1 3 1 4.38671875 3.6171875 C4.81597656 4.69226563 5.24523437 5.76734375 5.6875 6.875 C6.34298828 8.47988281 6.34298828 8.47988281 7.01171875 10.1171875 C8 13 8 13 8 16 C7.01 16 6.02 16 5 16 C4.67 14.68 4.34 13.36 4 12 C2.02 12 0.04 12 -2 12 C-2.33 13.32 -2.66 14.64 -3 16 C-3.99 16 -4.98 16 -6 16 C-4.25192871 10.53262809 -2.34205919 5.24175152 0 0 Z M1 6 C0.67 6.99 0.34 7.98 0 9 C0.66 9 1.32 9 2 9 C1.67 8.01 1.34 7.02 1 6 Z " fill="#47437A" transform="translate(309,544)"/>
<path d="M0 0 C2.31 0.33 4.62 0.66 7 1 C8.1875 3.25 8.1875 3.25 9 6 C7.625 8.3125 7.625 8.3125 6 10 C6.7425 10.928125 6.7425 10.928125 7.5 11.875 C9 14 9 14 9 16 C7.0625 15.625 7.0625 15.625 5 15 C4.67 14.34 4.34 13.68 4 13 C3.67 13.99 3.34 14.98 3 16 C2.01 16 1.02 16 0 16 C0 10.72 0 5.44 0 0 Z M2 3 C2 4.32 2 5.64 2 7 C3.32 6.67 4.64 6.34 6 6 C5.67 5.01 5.34 4.02 5 3 C4.01 3 3.02 3 2 3 Z " fill="#39346D" transform="translate(24,544)"/>
<path d="M0 0 C6.55034128 -0.44097669 12.17498185 1.19091863 18.4375 3 C19.45521484 3.28617188 20.47292969 3.57234375 21.52148438 3.8671875 C24.01672803 4.57007304 26.50930857 5.28118206 29 6 C28.01 6.33 27.02 6.66 26 7 C26 7.66 26 8.32 26 9 C27.32 9.33 28.64 9.66 30 10 C28 11 28 11 25.95629883 10.51855469 C25.13154053 10.23915039 24.30678223 9.95974609 23.45703125 9.671875 C22.54759766 9.36636719 21.63816406 9.06085937 20.70117188 8.74609375 C19.2712793 8.25302734 19.2712793 8.25302734 17.8125 7.75 C16.41161133 7.28013672 16.41161133 7.28013672 14.98242188 6.80078125 C9.8822251 5.07080599 4.91471731 3.20244593 0 1 C0 0.67 0 0.34 0 0 Z " fill="#524F7E" transform="translate(337,40)"/>
<path d="M0 0 C2.97 0 5.94 0 9 0 C9 0.99 9 1.98 9 3 C7.02 3 5.04 3 3 3 C3 3.99 3 4.98 3 6 C4.65 6 6.3 6 8 6 C8 6.99 8 7.98 8 9 C6.35 9 4.7 9 3 9 C3 11.31 3 13.62 3 16 C2.01 16 1.02 16 0 16 C0 10.72 0 5.44 0 0 Z " fill="#64608A" transform="translate(0,544)"/>
<path d="M0 0 C0.66 0 1.32 0 2 0 C2 4.62 2 9.24 2 14 C1.34 13.01 0.68 12.02 0 11 C-1.38403895 23.06091089 -2.30535107 34.8538131 -2 47 C-2.33 47 -2.66 47 -3 47 C-4.88153979 31.81328602 -4.89364861 14.68094582 0 0 Z " fill="#555283" transform="translate(63,331)"/>
<path d="M0 0 C2.64 0 5.28 0 8 0 C8 0.99 8 1.98 8 3 C6.35 3 4.7 3 3 3 C3 3.99 3 4.98 3 6 C4.65 6 6.3 6 8 6 C8 6.99 8 7.98 8 9 C6.35 9 4.7 9 3 9 C3 11.31 3 13.62 3 16 C2.01 16 1.02 16 0 16 C0 10.72 0 5.44 0 0 Z " fill="#37336C" transform="translate(192,544)"/>
<path d="M0 0 C0.66 0 1.32 0 2 0 C1.67 11.22 1.34 22.44 1 34 C0.67 34 0.34 34 0 34 C-0.33 29.71 -0.66 25.42 -1 21 C-1.33 24.96 -1.66 28.92 -2 33 C-2.33 33 -2.66 33 -3 33 C-3.49901509 21.67050931 -1.99128224 11.11799252 0 0 Z " fill="#5C5887" transform="translate(121,189)"/>
<path d="M0 0 C3.63 0 7.26 0 11 0 C11 0.99 11 1.98 11 3 C9.68 3 8.36 3 7 3 C7 7.29 7 11.58 7 16 C6.01 16 5.02 16 4 16 C4 11.71 4 7.42 4 3 C2.68 3 1.36 3 0 3 C0 2.01 0 1.02 0 0 Z " fill="#3E386F" transform="translate(148,544)"/>
<path d="M0 0 C3.3 0 6.6 0 10 0 C10 0.99 10 1.98 10 3 C9.01 3 8.02 3 7 3 C7 7.29 7 11.58 7 16 C6.01 16 5.02 16 4 16 C4 11.71 4 7.42 4 3 C2.68 3 1.36 3 0 3 C0 2.01 0 1.02 0 0 Z " fill="#4E4A7E" transform="translate(401,544)"/>
<path d="M0 0 C0.99 0.33 1.98 0.66 3 1 C2.01 2.485 2.01 2.485 1 4 C0.855625 4.969375 0.71125 5.93875 0.5625 6.9375 C-0.02633056 10.1433553 -0.87147936 11.59384623 -3 14 C-3 13.34 -3 12.68 -3 12 C-4.98 12.99 -6.96 13.98 -9 15 C-4.47058824 2.23529412 -4.47058824 2.23529412 0 0 Z " fill="#3D3872" transform="translate(517,169)"/>
<path d="M0 0 C0.66 0 1.32 0 2 0 C4.06297567 8.2519027 5.02716362 16.5653016 6 25 C3.05568104 20.58352156 2.86037292 16.22369271 2 11 C1.67 14.96 1.34 18.92 1 23 C0.67 23 0.34 23 0 23 C0 15.41 0 7.82 0 0 Z " fill="#D05F63" transform="translate(73,287)"/>
<path d="M0 0 C2.375 1.375 2.375 1.375 4 3 C4 3.66 4 4.32 4 5 C0.7 4.67 -2.6 4.34 -6 4 C-6.4021875 5.7015625 -6.4021875 5.7015625 -6.8125 7.4375 C-7.204375 8.613125 -7.59625 9.78875 -8 11 C-8.99 11.33 -9.98 11.66 -11 12 C-11.23816991 9.1419611 -11.42242213 6.80188855 -11 4 C-7.71493877 0.13522209 -4.98306141 -0.74215808 0 0 Z " fill="#64608E" transform="translate(102,544)"/>
<path d="M0 0 C4.18659858 3.82774727 7.37820862 7.94607874 10 13 C10 13.66 10 14.32 10 15 C9.01 15 8.02 15 7 15 C4.7734375 12.6640625 4.7734375 12.6640625 2.375 9.625 C1.57835937 8.62726563 0.78171875 7.62953125 -0.0390625 6.6015625 C-2 4 -2 4 -3 2 C-2.01 2 -1.02 2 0 2 C0 1.34 0 0.68 0 0 Z " fill="#595588" transform="translate(404,157)"/>
<path d="M0 0 C0.68359375 1.671875 0.68359375 1.671875 1 4 C-0.21484375 6.578125 -0.21484375 6.578125 -1.9375 9.25 C-2.50339844 10.14203125 -3.06929688 11.0340625 -3.65234375 11.953125 C-4.09707031 12.62859375 -4.54179687 13.3040625 -5 14 C-6.32 12.68 -7.64 11.36 -9 10 C-8.06862408 8.70391053 -7.1296434 7.41328368 -6.1875 6.125 C-5.66542969 5.40570313 -5.14335937 4.68640625 -4.60546875 3.9453125 C-3 2 -3 2 0 0 Z " fill="#CE5255" transform="translate(473,163)"/>
<path d="M0 0 C0.33 0 0.66 0 1 0 C1 9.57 1 19.14 1 29 C0.34 29.33 -0.32 29.66 -1 30 C-2.01386318 23.08729651 -1.83869133 16.86536919 -1.0625 9.9375 C-0.96259766 8.97650391 -0.86269531 8.01550781 -0.75976562 7.02539062 C-0.5149917 4.6825545 -0.26160604 2.34100586 0 0 Z " fill="#231E5F" transform="translate(120,201)"/>
<path d="M0 0 C0.99 0 1.98 0 3 0 C3.33 1.65 3.66 3.3 4 5 C4.763125 4.175 5.52625 3.35 6.3125 2.5 C9 0 9 0 12 0 C10.62673398 4.11979807 7.91404908 7.04297546 4 9 C4 8.34 4 7.68 4 7 C3.34 7 2.68 7 2 7 C1.67 9.97 1.34 12.94 1 16 C0.67 16 0.34 16 0 16 C0 10.72 0 5.44 0 0 Z " fill="#8D8AA8" transform="translate(503,544)"/>
<path d="M0 0 C0.99 0.33 1.98 0.66 3 1 C3.94921875 3.06640625 3.94921875 3.06640625 4.6875 5.5625 C5.06455078 6.80193359 5.06455078 6.80193359 5.44921875 8.06640625 C5.63097656 8.70449219 5.81273437 9.34257813 6 10 C-0.75 10.125 -0.75 10.125 -3 9 C-2.01 6.03 -1.02 3.06 0 0 Z M1 6 C0.67 6.99 0.34 7.98 0 9 C0.66 9 1.32 9 2 9 C1.67 8.01 1.34 7.02 1 6 Z " fill="#565385" transform="translate(309,544)"/>
<path d="M0 0 C0.99 0 1.98 0 3 0 C3 5.28 3 10.56 3 16 C2.01 16 1.02 16 0 16 C0 10.72 0 5.44 0 0 Z " fill="#625E8C" transform="translate(530,544)"/>
<path d="M0 0 C0.99 0 1.98 0 3 0 C3 5.28 3 10.56 3 16 C2.01 16 1.02 16 0 16 C0 10.72 0 5.44 0 0 Z " fill="#4A467C" transform="translate(454,544)"/>
<path d="M0 0 C4 2 4 2 6 5 C5.01 5 4.02 5 3 5 C3.33 5.66 3.66 6.32 4 7 C4.06950541 8.54023996 4.08452357 10.08334988 4.0625 11.625 C4.05347656 12.44226563 4.04445313 13.25953125 4.03515625 14.1015625 C4.02355469 14.72804688 4.01195312 15.35453125 4 16 C3.01 16 2.02 16 1 16 C0.67 10.72 0.34 5.44 0 0 Z " fill="#454075" transform="translate(548,544)"/>
<path d="M0 0 C2.31 0 4.62 0 7 0 C7.21917317 2.70313576 7.32851983 4.43958382 5.9375 6.8125 C3.00731249 8.60842137 0.3527047 8.18977574 -3 8 C-3.33 7.34 -3.66 6.68 -4 6 C-2.865625 5.71125 -1.73125 5.4225 -0.5625 5.125 C0.613125 4.75375 1.78875 4.3825 3 4 C3.33 3.34 3.66 2.68 4 2 C2.68 2 1.36 2 0 2 C0 1.34 0 0.68 0 0 Z " fill="#4B477C" transform="translate(587,552)"/>
<path d="M0 0 C2.64 0 5.28 0 8 0 C8 0.66 8 1.32 8 2 C6.02 2 4.04 2 2 2 C2 2.99 2 3.98 2 5 C3.98 5 5.96 5 8 5 C8 5.66 8 6.32 8 7 C5.69 7 3.38 7 1 7 C1 8.98 1 10.96 1 13 C0.67 13 0.34 13 0 13 C0 8.71 0 4.42 0 0 Z " fill="#2F2A66" transform="translate(49,545)"/>
<path d="M0 0 C0.99 0 1.98 0 3 0 C3 1.98 3 3.96 3 6 C4.98 6 6.96 6 9 6 C8.67 6.66 8.34 7.32 8 8 C5.69 8 3.38 8 1 8 C1 10.64 1 13.28 1 16 C0.67 16 0.34 16 0 16 C0 10.72 0 5.44 0 0 Z " fill="#3F3B70" transform="translate(426,544)"/>
<path d="M0 0 C0.66 0 1.32 0 2 0 C3.60355101 3.50776784 4.22036864 6.14354879 4 10 C3.34 10 2.68 10 2 10 C1.67 9.34 1.34 8.68 1 8 C0.67 8.66 0.34 9.32 0 10 C-0.66 10 -1.32 10 -2 10 C-1.125 2.25 -1.125 2.25 0 0 Z " fill="#585486" transform="translate(279,544)"/>
<path d="M0 0 C0.33 0 0.66 0 1 0 C1.66 4.62 2.32 9.24 3 14 C2.34 14 1.68 14 1 14 C1 15.65 1 17.3 1 19 C0.67 19 0.34 19 0 19 C-0.93983832 15.03179378 -1.13421572 11.32334639 -1.125 7.25 C-1.12757812 6.10015625 -1.13015625 4.9503125 -1.1328125 3.765625 C-1 1 -1 1 0 0 Z " fill="#C0262B" transform="translate(75,297)"/>
<path d="M0 0 C0.66 1.32 1.32 2.64 2 4 C0.54618103 4.69699552 -0.91322953 5.38233866 -2.375 6.0625 C-3.18710937 6.44535156 -3.99921875 6.82820313 -4.8359375 7.22265625 C-5.55007813 7.47917969 -6.26421875 7.73570313 -7 8 C-7.66 7.67 -8.32 7.34 -9 7 C-8.67 6.34 -8.34 5.68 -8 5 C-8.99 4.67 -9.98 4.34 -11 4 C-7.37 2.68 -3.74 1.36 0 0 Z " fill="#4B477A" transform="translate(387,81)"/>
<path d="M0 0 C1.98 0 3.96 0 6 0 C6 0.66 6 1.32 6 2 C4.35 2 2.7 2 1 2 C1 2.99 1 3.98 1 5 C2.65 5 4.3 5 6 5 C6 5.99 6 6.98 6 8 C4.35 8 2.7 8 1 8 C1 10.31 1 12.62 1 15 C0.67 15 0.34 15 0 15 C0 10.05 0 5.1 0 0 Z " fill="#2F2A66" transform="translate(2,545)"/>
<path d="M0 0 C0.66 0 1.32 0 2 0 C2.33 5.28 2.66 10.56 3 16 C1.68 15.67 0.36 15.34 -1 15 C-1.33 13.68 -1.66 12.36 -2 11 C-1.34 11 -0.68 11 0 11 C0 7.37 0 3.74 0 0 Z " fill="#423D75" transform="translate(485,544)"/>
<path d="M0 0 C6 0 6 0 7.9375 1.25 C9 3 9 3 8.6875 5.1875 C8.3471875 6.0846875 8.3471875 6.0846875 8 7 C7.01 6.67 6.02 6.34 5 6 C5 5.34 5 4.68 5 4 C3.68 3.01 2.36 2.02 1 1 C1 5.95 1 10.9 1 16 C0.67 16 0.34 16 0 16 C0 10.72 0 5.44 0 0 Z " fill="#605C8A" transform="translate(332,544)"/>
<path d="M0 0 C0.33 0.66 0.66 1.32 1 2 C1.66 2.33 2.32 2.66 3 3 C2.44570312 3.48210937 1.89140625 3.96421875 1.3203125 4.4609375 C0.59585938 5.09257812 -0.12859375 5.72421875 -0.875 6.375 C-1.59429687 7.00148438 -2.31359375 7.62796875 -3.0546875 8.2734375 C-4.4076598 9.47426834 -5.7208345 10.7208345 -7 12 C-7.74609375 10.265625 -7.74609375 10.265625 -8 8 C-6.34765625 5.859375 -6.34765625 5.859375 -4.0625 3.75 C-3.31097656 3.04359375 -2.55945313 2.3371875 -1.78515625 1.609375 C-1.19605469 1.07828125 -0.60695312 0.5471875 0 0 Z " fill="#605C8B" transform="translate(168,295)"/>
<path d="M0 0 C2.64 0 5.28 0 8 0 C8 0.99 8 1.98 8 3 C6.35 3 4.7 3 3 3 C3 3.99 3 4.98 3 6 C4.65 6 6.3 6 8 6 C7.67 6.99 7.34 7.98 7 9 C7 8.34 7 7.68 7 7 C5.02 7 3.04 7 1 7 C1.020625 6.21625 1.04125 5.4325 1.0625 4.625 C1.18684063 2.01885039 1.18684063 2.01885039 0 0 Z " fill="#5A5685" transform="translate(192,544)"/>
<path d="M0 0 C3.17462943 2.40242227 5.85751741 4.61713276 8 8 C8 8.66 8 9.32 8 10 C2.98886765 8.5682479 1.05530451 6.01554307 -2 2 C-1.34 2 -0.68 2 0 2 C0 1.34 0 0.68 0 0 Z " fill="#666391" transform="translate(231,290)"/>
<path d="M0 0 C0.66 0 1.32 0 2 0 C2 5.28 2 10.56 2 16 C1.01 15.67 0.02 15.34 -1 15 C-0.67 10.05 -0.34 5.1 0 0 Z " fill="#4E4B80" transform="translate(561,544)"/>
<path d="M0 0 C4 5 4 5 8 10 C7.01 10.99 6.02 11.98 5 13 C4.34 12.67 3.68 12.34 3 12 C2.87625 11.443125 2.7525 10.88625 2.625 10.3125 C1.74996094 7.07485549 -0.08304175 4.72084397 -2 2 C-1.34 2 -0.68 2 0 2 C0 1.34 0 0.68 0 0 Z " fill="#676392" transform="translate(319,247)"/>
<path d="M0 0 C3 2 3 2 3.58203125 3.875 C3.65808594 4.57625 3.73414063 5.2775 3.8125 6 C3.90144531 6.70125 3.99039063 7.4025 4.08203125 8.125 C4 10 4 10 2 12 C1.34 11.67 0.68 11.34 0 11 C0 8.36 0 5.72 0 3 C-0.66 2.67 -1.32 2.34 -2 2 C-1.34 2 -0.68 2 0 2 C0 1.34 0 0.68 0 0 Z " fill="#64608F" transform="translate(227,545)"/>
<path d="M0 0 C0.66 0 1.32 0 2 0 C2 2.31 2 4.62 2 7 C2.99 7.33 3.98 7.66 5 8 C4.01 8 3.02 8 2 8 C2 10.31 2 12.62 2 15 C1.34 15 0.68 15 0 15 C0 10.05 0 5.1 0 0 Z " fill="#231D5F" transform="translate(246,545)"/>
<path d="M0 0 C2.5 2.25 2.5 2.25 5 5 C5 6.32 5 7.64 5 9 C2.13275314 8.42655063 1.1385485 8.1385485 -1 6 C-0.625 2.875 -0.625 2.875 0 0 Z " fill="#464279" transform="translate(226,283)"/>
<path d="M0 0 C0.66 0 1.32 0 2 0 C2 5.28 2 10.56 2 16 C1.34 16 0.68 16 0 16 C0 10.72 0 5.44 0 0 Z " fill="#37326D" transform="translate(73,544)"/>
<path d="M0 0 C1.32 0 2.64 0 4 0 C3.5205537 4.21912747 2.83374881 6.79663178 0 10 C-1 7 -1 7 -1 5 C-1.33 4.34 -1.66 3.68 -2 3 C-1.34 2.01 -0.68 1.02 0 0 Z " fill="#524E82" transform="translate(518,165)"/>
<path d="M0 0 C2 0 4 0 6 0 C5.34 1.98 4.68 3.96 4 6 C3.67 5.34 3.34 4.68 3 4 C1.02 4.99 -0.96 5.98 -3 7 C-1.125 2.25 -1.125 2.25 0 0 Z " fill="#534F83" transform="translate(511,177)"/>
<path d="M0 0 C0.33 0 0.66 0 1 0 C1.36923077 5.41538462 1.36923077 5.41538462 -0.5 8.375 C-0.995 8.91125 -1.49 9.4475 -2 10 C-4.64 9.67 -7.28 9.34 -10 9 C-9.67 8.34 -9.34 7.68 -9 7 C-7.35 7 -5.7 7 -4 7 C-3.67 6.34 -3.34 5.68 -3 5 C-2.01 5 -1.02 5 0 5 C0 3.35 0 1.7 0 0 Z " fill="#64618E" transform="translate(368,549)"/>
<path d="M0 0 C6.625 -0.25 6.625 -0.25 10 2 C9.01 2 8.02 2 7 2 C7 2.66 7 3.32 7 4 C8.32 4.33 9.64 4.66 11 5 C10.01 5.495 10.01 5.495 9 6 C5.42230149 4.4775751 2.54631035 2.97069541 0 0 Z " fill="#413D73" transform="translate(356,45)"/>
<path d="M0 0 C3.3 0 6.6 0 10 0 C10 0.99 10 1.98 10 3 C6.7 3 3.4 3 0 3 C0 2.01 0 1.02 0 0 Z " fill="#3C376C" transform="translate(401,544)"/>
<path d="M0 0 C0.75 1.6875 0.75 1.6875 1 4 C-0.9375 6.75 -0.9375 6.75 -3 9 C-3.33 8.34 -3.66 7.68 -4 7 C-4.99 7.495 -4.99 7.495 -6 8 C-4.55746343 4.63408134 -2.66735273 2.48952921 0 0 Z " fill="#D5676A" transform="translate(477,157)"/>
<path d="M0 0 C2.60608273 2.5162178 4.89381685 5.05134359 7 8 C6.67 8.66 6.34 9.32 6 10 C3.54896452 9.01958581 2.23241214 8.3486182 0.75 6.125 C0 4 0 4 0 0 Z " fill="#5E5B8A" transform="translate(578,550)"/>
<path d="M0 0 C0.99 0 1.98 0 3 0 C4.60355101 3.50776784 5.22036864 6.14354879 5 10 C4.67 9.34 4.34 8.68 4 8 C3.34 8 2.68 8 2 8 C1.34 5.36 0.68 2.72 0 0 Z " fill="#555183" transform="translate(269,544)"/>
<path d="M0 0 C5.45454545 -0.36363636 5.45454545 -0.36363636 7.875 1.25 C9 3 9 3 9 7 C8.34 7 7.68 7 7 7 C7 5.68 7 4.36 7 3 C5.35 3 3.7 3 2 3 C2 2.34 2 1.68 2 1 C1.34 0.67 0.68 0.34 0 0 Z " fill="#4D497B" transform="translate(246,544)"/>
<path d="M0 0 C0.33 0.99 0.66 1.98 1 3 C-1 5 -1 5 -4.625 5.125 C-5.73875 5.08375 -6.8525 5.0425 -8 5 C-8.33 4.34 -8.66 3.68 -9 3 C-6.03 2.01 -3.06 1.02 0 0 Z " fill="#423E75" transform="translate(228,555)"/>
<path d="M0 0 C3.36704285 -0.2295711 5.41370268 -0.33943529 8.375 1.375 C8.91125 1.91125 9.4475 2.4475 10 3 C10 3.66 10 4.32 10 5 C6.58978257 4.21302675 3.31114834 3.12880057 0 2 C0 1.34 0 0.68 0 0 Z " fill="#4F4C7F" transform="translate(96,544)"/>
<path d="M0 0 C0.66 0 1.32 0 2 0 C1.67 4.29 1.34 8.58 1 13 C0.67 13 0.34 13 0 13 C-0.144375 12.05125 -0.28875 11.1025 -0.4375 10.125 C-0.82935399 7.1065506 -0.82935399 7.1065506 -2 5 C-1.0625 2.375 -1.0625 2.375 0 0 Z " fill="#676390" transform="translate(104,218)"/>
<path d="M0 0 C0.99 0.33 1.98 0.66 3 1 C4.1875 3.5625 4.1875 3.5625 5 6 C3.0625 5.625 3.0625 5.625 1 5 C0.67 4.34 0.34 3.68 0 3 C-0.66 3.99 -1.32 4.98 -2 6 C-2 4.35 -2 2.7 -2 1 C-1.34 0.67 -0.68 0.34 0 0 Z " fill="#7976A1" transform="translate(28,554)"/>
<path d="M0 0 C0.33 0.66 0.66 1.32 1 2 C3.31 2 5.62 2 8 2 C8 2.33 8 2.66 8 3 C6.02 3 4.04 3 2 3 C1.67 4.32 1.34 5.64 1 7 C0.01 7 -0.98 7 -2 7 C-1.34 4.69 -0.68 2.38 0 0 Z " fill="#65628E" transform="translate(305,553)"/>
<path d="M0 0 C2.31 0 4.62 0 7 0 C7.33 0.99 7.66 1.98 8 3 C5.36 3 2.72 3 0 3 C0 2.01 0 1.02 0 0 Z " fill="#464276" transform="translate(219,544)"/>
<path d="M0 0 C2.72426311 2.35277269 3.8141763 4.62496331 5 8 C4.01 8 3.02 8 2 8 C-0.1875 5 -0.1875 5 -2 2 C-1.34 2 -0.68 2 0 2 C0 1.34 0 0.68 0 0 Z " fill="#6F6C98" transform="translate(409,164)"/>
<path d="M0 0 C0.66 1.32 1.32 2.64 2 4 C0.8125 5.5625 0.8125 5.5625 -1 7 C-3.6875 6.6875 -3.6875 6.6875 -6 6 C-6 4.68 -6 3.36 -6 2 C-5.34 2 -4.68 2 -4 2 C-4 2.66 -4 3.32 -4 4 C-2.68 4 -1.36 4 0 4 C0 2.68 0 1.36 0 0 Z " fill="#625F8E" transform="translate(31,546)"/>
<path d="M0 0 C0.99 0 1.98 0 3 0 C2.125 5.75 2.125 5.75 1 8 C0.34 8 -0.32 8 -1 8 C-0.67 5.36 -0.34 2.72 0 0 Z " fill="#5A5688" transform="translate(288,544)"/>
<path d="M0 0 C0.66 1.32 1.32 2.64 2 4 C2.66 4 3.32 4 4 4 C4.33 3.34 4.66 2.68 5 2 C5.66 1.67 6.32 1.34 7 1 C7.33 2.32 7.66 3.64 8 5 C1.25 5.125 1.25 5.125 -1 4 C-0.67 2.68 -0.34 1.36 0 0 Z " fill="#6D6A95" transform="translate(307,549)"/>
<path d="M0 0 C0.66 0 1.32 0 2 0 C1.67 2.64 1.34 5.28 1 8 C0.01 7.67 -0.98 7.34 -2 7 C-1.34 4.69 -0.68 2.38 0 0 Z " fill="#6B6995" transform="translate(538,120)"/>
<path d="M0 0 C6.52307692 -0.36923077 6.52307692 -0.36923077 8.9375 1.5 C9.288125 1.995 9.63875 2.49 10 3 C7.69 3 5.38 3 3 3 C3 2.34 3 1.68 3 1 C2.01 0.67 1.02 0.34 0 0 Z " fill="#37326C" transform="translate(345,42)"/>
<path d="M0 0 C0.33 1.32 0.66 2.64 1 4 C3.33075929 3.04134491 3.33075929 3.04134491 5 0 C5.33 1.98 5.66 3.96 6 6 C3.03 5.505 3.03 5.505 0 5 C0 3.35 0 1.7 0 0 Z " fill="#696691" transform="translate(248,547)"/>
<path d="M0 0 C-1.24546405 3.73639216 -2.63404953 4.18756513 -6 6 C-6 3 -6 3 -4.6875 1.3125 C-3 0 -3 0 0 0 Z " fill="#565283" transform="translate(515,544)"/>
<path d="M0 0 C0.66 0 1.32 0 2 0 C1.34 2.97 0.68 5.94 0 9 C-2 5 -2 5 -1.125 2.25 C-0.75375 1.5075 -0.3825 0.765 0 0 Z " fill="#6E6B97" transform="translate(466,106)"/>
</svg>
